<svg width="160" height="183" viewBox="0 0 160 183" fill="none" xmlns="http://www.w3.org/2000/svg">
<path fill-rule="evenodd" clip-rule="evenodd" d="M156.637 172.424C155.488 173.073 154.143 173.574 152.867 173.91C152.117 174.108 150.879 174.718 150.221 174.159C149.905 173.89 149.832 173.28 149.646 172.927C149.351 172.367 148.931 171.884 148.538 171.39C147.585 170.192 146.594 169.036 145.557 167.908C145.066 167.374 144.168 166.127 143.302 166.209C142.222 166.311 142.248 167.787 142.519 168.541C143.38 170.941 145.987 173.033 147.69 174.841C147.257 175.499 144.879 175.421 144.219 175.267C143.211 175.032 143.109 174.323 142.649 173.512C141.572 171.616 139.389 170.556 137.594 169.442C136.94 169.035 135.549 167.909 134.697 168.193C133.889 168.461 133.923 169.481 134.181 170.146C134.57 171.153 135.676 171.85 136.494 172.486C137.584 173.334 138.582 174.257 139.49 175.294C138.18 175.4 136.875 175.582 135.568 175.688C133.988 175.817 132.671 174.961 131.216 174.475C129.864 174.024 128.517 173.643 127.188 173.123C125.696 172.539 124.132 172.336 122.627 171.824C116.718 169.814 110.929 167.287 105.236 164.739C102.523 163.525 99.8659 162.31 97.0389 161.36C94.9789 160.667 91.7416 159.287 91.249 156.864C90.989 155.583 91.9363 154.206 92.076 152.927C92.2396 151.422 92.1107 149.766 91.6466 148.322C91.2372 147.05 90.5591 145.871 90.0248 144.65C89.4022 143.227 89.9597 143.25 91.1691 143.088C92.6168 142.894 94.3062 142.089 95.6669 141.565C97.2343 140.961 98.7883 140.117 100.224 139.249C101.522 138.464 102.652 137.452 103.686 136.354C104.738 135.236 105.418 133.912 106.435 132.766C110.187 137.324 113.754 141.951 117.741 146.311C119.622 148.369 121.669 150.071 123.988 151.636C124.956 152.289 125.917 153.036 126.972 153.552C128.291 154.199 129.766 154.6 131.122 155.19C136.321 157.453 141.282 159.926 146.133 162.845C148.479 164.257 150.448 165.876 152.514 167.647C153.158 168.199 158.426 171.413 156.637 172.424ZM95.6486 135.089C94.8085 135.464 94.0076 135.953 93.1113 136.194C93.3654 134.667 94.8082 132.364 96.658 132.617C97.3649 132.714 97.8979 133.256 97.5875 134.003C97.3051 134.682 96.2472 134.821 95.6486 135.089ZM37.1677 93.6721C36.2153 94.1915 35.3278 94.4938 34.7693 93.3791C35.183 93.2972 37.0622 93.0497 37.1677 93.6721ZM35.5819 90.5205C34.8457 90.3001 35.4344 90.0683 35.6877 89.8025C35.885 89.5954 36.5383 88.8691 36.7669 88.7492C37.7766 88.221 38.5569 90.1863 39.0399 90.8244C37.8969 90.7239 36.6945 90.8539 35.5819 90.5205ZM43.452 97.3255C42.0569 97.5592 42.2116 95.8352 42.2534 94.9619C42.5476 95.3166 44.5398 97.1437 43.452 97.3255ZM48.0755 94.3481C46.3746 94.6315 45.2507 91.7293 45.5557 90.4599C45.8238 89.3415 47.142 88.717 48.1916 88.5522C49.2085 88.3922 50.6247 88.6104 50.9267 89.769C51.1938 90.7927 49.2091 94.1591 48.0755 94.3481ZM88.3381 138.16C87.1157 138.531 85.9181 138.577 84.6896 138.942C83.2958 139.355 82.0056 139.318 80.6088 139.599C80.0405 139.713 78.5078 140.531 77.9535 140.349C77.4044 140.168 76.6098 138.485 76.2943 138.047C78.7654 137.033 80.8736 135.723 82.5025 133.585C83.7975 131.886 85.1865 129.339 84.3717 127.145C83.4527 124.672 80.2849 124.135 78.1729 125.168C77.1737 125.656 76.1834 126.264 75.3594 127.009C74.4175 127.86 74.0472 128.789 73.4369 129.839C72.8199 130.901 72.3868 130.31 71.7701 129.408C71.2433 128.638 71.312 127.859 70.6536 127.099C70.3176 126.711 69.7973 126.336 69.622 125.835C69.5109 125.518 69.7451 124.954 69.5343 124.704C69.2379 124.353 68.8772 124.766 68.6288 124.452C68.4484 124.224 68.5074 123.704 68.3211 123.419C68.1593 123.257 67.9798 123.119 67.7808 123.004C67.5396 122.886 67.4958 122.739 67.6487 122.562C67.457 122.211 67.6417 122.093 67.2312 121.667C66.591 121.002 66.0075 120.365 65.5517 119.58C65.3437 119.221 65.3641 118.688 65.1054 118.378C64.7504 117.951 64.159 118.015 63.8537 117.487C63.5818 117.016 63.7638 116.193 63.3154 115.765C63.079 115.698 62.8424 115.633 62.6058 115.568C62.4276 115.398 62.324 115.19 62.2943 114.947C62.0454 114.568 61.9958 114.123 61.6814 113.723C61.0795 112.958 60.2701 112.251 59.7384 111.444C59.1796 110.596 59.476 110.454 60.4467 110.15C61.3221 109.876 62.1215 109.622 62.9331 109.156C66.6847 107 70.2414 101.28 64.2866 99.5326C62.0768 98.8842 60.2615 97.1403 57.8111 97.8256C56.7489 98.1231 55.7413 98.7555 54.9489 99.5063C54.4013 100.025 53.8942 101.413 53.2221 101.679C52.0134 102.157 52.5243 100.963 52.1814 100.414C52.0175 100.153 51.3582 99.8508 51.1138 99.6123C50.8271 99.3329 50.5499 98.9801 50.3507 98.6346C49.9811 97.9931 49.755 97.6355 49.222 97.1131C49.0212 96.9159 48.0179 95.8972 48.9227 96.0304C48.5563 94.9274 49.0909 94.7615 49.8301 93.9557C50.6979 93.0096 51.594 91.6947 51.5991 90.369C51.6091 87.8235 48.555 86.6831 46.6368 88.1938C46.2464 88.5014 43.9379 91.4693 44.4103 89.5765C44.665 88.5559 47.023 85.8908 48.1162 86.5804C46.8911 84.8171 44.0768 89.0988 43.42 89.9747C42.8607 88.9579 42.8211 88.1622 41.8956 87.3748C41.1422 88.5681 41.54 87.2639 41.374 86.9989C41.0151 86.4263 41.2122 87.081 41.0176 86.8777C40.7753 86.6243 40.3939 86.4247 40.136 86.0892C39.6942 86.6809 39.8708 86.0442 39.7354 85.8233C39.4191 85.3063 39.5414 85.0069 38.9992 84.5574C38.6046 84.2307 37.8272 83.7232 37.2961 83.6766C36.6837 83.6229 36.5141 83.8547 35.8901 83.6833C35.0963 83.4653 34.0974 83.1303 34.4815 84.4417C34.7607 85.3945 35.895 85.936 36.1434 86.9096C36.3935 87.8895 35.4123 88.8771 34.9364 89.6804C34.3251 90.7111 33.8252 90.6271 32.7178 90.8595C32.0101 91.0081 31.0656 91.3257 31.6726 92.1735C32.106 92.7794 33.1219 92.6518 33.6939 93.0107C34.496 93.5136 34.485 94.7541 35.5093 94.9699C36.6371 95.2076 37.2832 93.9674 38.2342 93.6678C38.9104 93.4549 41.0052 93.4785 41.5373 93.9802C42.2625 94.6631 41.6359 95.9687 41.8184 96.8173C42.09 98.076 42.9522 98.1529 44.0426 98.1933C45.3851 98.2427 45.8569 99.5156 46.5789 100.525C48.2699 102.89 49.7396 105.412 51.4718 107.745C52.2387 108.779 53.3604 109.698 53.9881 110.819C54.7634 112.204 53.6872 113.003 52.7583 113.997C51.5445 115.296 50.6384 116.774 49.5857 118.194C48.6502 119.455 47.4876 119.141 45.9929 119.141C46.3258 118.463 46.7267 118.04 47.5463 118.122C46.6892 117.089 46.0039 118.271 45.448 118.926C44.6437 119.873 43.5953 120.101 42.5621 120.724C42.1966 120.944 40.206 122.372 40.8108 122.86C40.8795 122.915 44.1748 120.774 44.55 120.578C44.55 121.368 44.3751 122.189 44.4873 122.975C44.5694 123.551 44.9797 124.153 44.8922 124.752C44.7266 125.883 43.2464 126.774 42.6111 127.655C42.1328 128.319 42.2483 128.842 42.0049 129.554C41.7828 130.203 41.8994 130.007 41.3462 130.207C40.22 130.616 38.3241 130.396 37.3042 129.814C36.6711 129.454 36.1857 128.884 35.6713 128.382C35.2839 128.003 34.3095 127.356 34.2018 126.826C34.0172 125.914 35.8511 124.219 36.214 123.278C37.239 120.622 35.4813 118.558 32.7458 118.407C33.5889 117.765 34.6339 118.249 35.5224 118.494C34.0034 116.415 31.4088 118.126 30.1202 119.538C29.2397 117.34 28.8152 115.022 28.2774 112.729C27.911 111.169 26.5164 108.383 27.1385 106.776C27.4391 105.999 28.2881 105.566 28.8752 105.027C29.5425 104.415 30.114 103.683 30.6018 102.925C31.7509 101.14 32.4147 98.8868 30.8322 97.1278C31.313 97.0496 31.794 96.9717 32.2747 96.8936C31.4928 96.1678 30.2588 96.5214 29.244 96.3063C28.6001 96.1697 26.7471 96.2582 26.3172 95.8982C25.8001 95.4654 26.1314 93.4743 26.15 92.8849C26.1925 91.5078 26.3091 90.1837 26.4631 88.8146C26.609 87.5215 26.5796 86.1243 26.8502 84.8538C27.0698 83.8229 27.7718 83.5086 28.5818 82.9012C30.5178 81.4483 32.0955 79.6813 31.4344 77.1776C31.6685 77.1409 31.9027 77.1042 32.1369 77.0675C31.3794 76.5265 30.3993 76.7232 29.5568 76.4372C30.3304 74.2865 32.0416 70.5057 34.8201 70.3021C34.9157 71.2636 34.8503 72.407 35.5071 73.2029C36.2549 74.1089 37.5674 74.2004 38.5804 73.7211C39.4996 73.2856 40.3624 72.3632 40.7861 71.4518C41.0727 70.8348 41.0211 69.7916 41.5242 69.3028C42.1987 68.6467 46.8505 69.0425 46.7081 70.1495C46.6241 70.8003 45.3802 71.8942 45.0327 72.4711C44.3963 73.5267 43.8871 74.6685 43.6534 75.8811C43.2989 77.7223 43.5043 80.1529 45.3974 81.1208C47.5506 82.2219 50.1746 80.822 51.9405 79.6124C52.9101 78.9483 53.8493 78.2154 54.7349 77.4455C55.2067 77.0361 55.6808 76.614 56.0967 76.1482C56.4038 75.8045 56.649 75.2499 57.027 74.9923C57.9198 74.3841 58.795 75.4161 59.5506 75.9374C60.7813 76.7868 62.0058 77.5931 63.3269 78.3C66.0075 79.7339 68.4584 81.6336 70.8285 83.5198C73.2124 85.4171 75.6706 87.3689 77.6017 89.7328C76.4321 90.4431 76.6407 90.6279 76.1204 91.8954C75.7511 92.7948 75.2423 93.5604 75.1836 94.56C75.0822 96.2848 76.2033 97.7546 77.9051 98.1366C78.8569 98.3501 79.7635 98.1792 80.6451 97.7948C81.3304 97.4962 82.0134 96.7609 82.7294 96.5783C84.0602 96.2393 85.1251 98.7223 85.871 99.5969C89.1841 103.481 92.6862 107.212 95.8061 111.255C96.1514 111.703 97.1778 112.577 97.2613 113.17C97.3811 114.022 96.0249 114.833 95.4626 115.321C95.167 115.577 92.0348 118.487 93.0865 118.949C93.3864 119.081 94.2639 117.296 94.4833 117.143C95.3048 116.572 94.6836 117.692 94.6346 118.259C94.5121 119.666 95.4914 120.434 96.8677 120.255C98.3366 120.065 99.6441 118.92 100.553 117.838C101.692 119.141 103.473 121.111 103.802 122.851C104.012 123.963 103.038 126.684 104.857 126.911C105.134 126.946 106.139 126.209 106.326 126.627C106.482 126.976 105.397 127.572 105.24 127.688C104.571 128.181 104.166 128.71 103.626 129.307C102.992 130.009 102.125 130.6 101.412 131.272C100.66 131.98 99.1725 133.903 98.1805 132.974C97.682 132.507 97.8131 131.897 97.0144 131.622C96.2871 131.373 95.3657 131.689 94.69 131.966C93.929 132.278 91.4232 133.414 91.1451 134.35C90.7616 135.641 92.8329 134.089 93.2009 133.862C92.781 134.915 92.5489 136.44 91.4795 137.054C90.5909 137.564 89.3128 137.864 88.3381 138.16ZM74.1336 130.197C74.8447 127.94 79.0386 123.915 81.6893 125.173C78.6001 125.813 76.1487 127.901 74.1336 130.197ZM75.7018 136.661C74.6682 136.092 74.7239 134.44 74.3632 133.473C74.1559 132.918 73.7416 132.513 73.8636 131.898C74.006 131.176 74.9382 130.374 75.4343 129.853C76.9955 128.215 79.7433 125.976 82.2564 126.352C85.4551 126.83 83.2866 131.071 82.1975 132.532C81.2691 133.777 77.6919 137.757 75.7018 136.661ZM68.2395 133.901C64.7803 133.672 61.3328 133.367 57.9207 132.74C56.7109 132.518 55.6975 132.55 56.3895 131.177C56.6181 130.723 57.996 127.882 58.3072 127.963C58.4916 128.012 58.4496 129.965 58.5037 130.189C58.7481 131.194 59.434 132.131 60.5904 132.067C62.4825 131.963 63.7019 129.547 64.6982 128.25C65.4963 129.31 66.074 130.487 66.8761 131.529C67.2597 132.027 68.5946 133.186 68.2395 133.901ZM47.9587 120.49C47.3784 121.805 46.2112 123.056 45.3993 124.248C44.9404 123.288 44.6176 121.086 45.7062 120.376C46.1183 120.108 48.3256 119.658 47.9587 120.49ZM59.9565 124.406C60.1161 123.9 60.293 123.398 60.4903 122.905C60.8286 123.957 61.0017 123.988 59.9565 124.406ZM62.9175 125.484C63.3374 126.187 64.0373 126.878 63.9275 127.761C63.8443 128.43 63.2322 129.115 62.795 129.581C62.0715 130.352 60.4687 131.832 59.4205 130.808C58.5449 129.953 58.8499 127.601 59.2571 126.639C59.8386 125.264 61.9167 123.81 62.9175 125.484ZM60.8631 124.044C61.1037 123.949 60.5982 122.415 61.0674 122.262C61.4766 123.184 61.8623 123.433 60.8631 124.044ZM54.253 103.397C54.0972 102.831 53.7397 102.855 53.8684 102.155C53.9529 101.697 54.3217 101.207 54.6014 100.843C55.1588 100.118 55.8942 99.5211 56.6894 99.0689C58.3683 98.1146 60.6736 97.7182 62.1767 99.2122C60.7716 99.4313 56.4638 100.801 56.4364 102.699C57.999 102.402 59.2278 100.852 60.795 100.364C62.0814 99.9624 63.4763 99.9906 64.756 100.414C68.2589 101.573 66.8024 104.563 64.8252 106.505C63.6516 107.658 62.2443 108.519 60.7059 109.113C59.9939 109.388 59.557 109.418 58.8571 109.28C58.726 109.254 58.5729 109.014 58.4157 108.963C58.0251 108.835 58.1384 109.268 57.8167 109.073C57.536 108.904 56.9373 107.81 56.7465 107.496C56.4426 106.998 56.301 106.513 55.9279 106.058C55.5545 105.603 55.3728 104.993 55.0275 104.581C54.8617 104.382 54.407 104.39 54.2851 104.197C54.1017 103.906 54.3351 103.695 54.253 103.397ZM48.8734 125.697C49.6696 124.331 51.0317 123.171 52.0856 121.977C52.1502 123.939 50.7254 125.283 48.8734 125.697ZM49.9493 126.328C51.5935 125.756 52.4993 124.389 52.667 122.732C52.8799 120.633 54.2145 119.531 55.0181 117.645C55.3263 116.922 55.6854 114.544 56.8797 115.224C57.2894 115.458 57.5325 116.336 57.746 116.733C58.2625 117.693 58.8499 118.623 59.3977 119.565C59.8437 120.333 60.5123 121.104 60.3156 122.028C60.1438 122.833 59.5917 123.692 59.2682 124.451C58.5045 126.245 57.5013 127.897 56.663 129.651C56.3249 130.359 55.9247 132.035 54.8921 132.026C54.0748 132.019 54.1661 131.137 53.628 130.834C52.9488 130.453 52.1766 131.179 51.6185 131.48C52.2611 130.409 53.3844 129.802 54.6468 130.004C53.1351 128.517 52.1136 130.523 50.8161 130.97C49.5867 131.393 47.4058 129.397 46.3708 128.831C46.7668 128.168 47.1245 127.359 47.8055 126.923C48.4513 126.509 49.2441 126.573 49.9493 126.328ZM36.5822 139.916C36.7623 139.059 37.2711 138.554 37.5935 137.776C37.9674 138.719 37.0918 139.275 36.5822 139.916ZM62.7043 145.169C62.616 148.052 62.3775 150.928 62.2914 153.812C62.2518 155.142 62.0133 156.41 61.855 157.725C61.7212 158.837 61.7894 159.928 61.0809 160.878C59.9637 162.375 57.7917 162.806 56.1055 163.361C54.8673 163.768 53.6148 164.137 52.3919 164.59C51.2915 164.997 50.4048 165.614 49.3585 166.098C48.4225 166.531 47.4123 166.788 46.4806 167.249C45.517 167.727 44.7554 168.308 43.7656 168.733C42.5807 169.242 41.6044 170.147 40.5505 170.865C39.6229 171.498 38.6415 171.986 37.8433 172.781C37.095 173.527 36.1478 173.855 35.2998 174.517C34.4032 175.218 33.4645 175.674 32.4739 176.223C30.4446 177.35 27.7067 179.273 25.2644 178.179C25.9629 177.298 27.3926 176.451 27.5013 175.237C27.6426 173.656 26.2491 174.238 25.4421 174.743C24.2197 175.508 23.5435 176.431 22.613 177.45C21.5252 178.642 20.151 177.84 18.8199 177.505C19.73 176.696 20.6328 175.879 21.5413 175.069C22.3082 174.385 23.4819 173.645 23.9489 172.699C24.2827 172.022 24.2663 171.095 23.4609 170.744C22.5597 170.351 21.5405 171.179 20.8729 171.673C19.1012 172.982 17.9343 174.642 16.7709 176.464C16.152 177.433 15.8669 177.359 14.7283 177.165C13.5218 176.96 12.3153 176.741 11.0989 176.597C12.7102 174.963 14.5111 173.192 15.7838 171.28C16.1962 170.66 16.734 169.027 15.4777 168.877C14.9601 168.815 13.9294 169.86 13.5302 170.142C11.7851 171.374 10.1072 172.928 8.95082 174.726C8.56884 175.32 8.44906 175.98 7.70961 176.029C6.74298 176.094 4.94698 175.183 4.01453 174.901C5.79653 172.682 7.56614 170.448 9.64827 168.491C11.5614 166.693 13.4696 165.387 15.7071 164.008C18.1049 162.53 20.3386 160.829 22.54 159.082C24.6474 157.41 26.8488 155.834 28.7886 153.967C32.6634 150.239 36.1147 145.951 38.9726 141.417C39.6412 140.357 40.2708 139.268 40.8149 138.139C41.326 137.079 41.5616 135.811 42.2515 134.847C42.4897 134.514 42.8257 134.267 43.038 133.919C43.2383 133.592 43.1705 133.196 43.476 132.906C44.1826 132.236 45.4693 132.64 46.1296 133.11C47.1918 133.865 48.051 134.781 49.2185 135.414C50.3927 136.049 51.6627 136.512 52.9628 136.824C56.0014 137.554 59.0138 138.152 62.1094 138.596C61.791 139.762 62.5732 139.946 62.8324 140.996C63.1471 142.27 62.7439 143.872 62.7043 145.169ZM33.4457 125.714C32.7569 124.703 32.142 123.646 31.4648 122.629C31.0524 122.009 30.5412 121.344 30.8938 120.586C31.4874 119.308 33.5819 119.081 34.7184 119.638C37.3023 120.904 34.902 124.525 33.4457 125.714ZM26.6066 102.594C26.3686 100.619 27.1336 99.2168 28.9436 98.1808C30.2335 97.4423 31.2723 98.4514 31.096 99.7974C30.8282 101.848 28.6093 104.129 26.9158 105.199C26.8052 104.332 26.7113 103.463 26.6066 102.594ZM26.3306 96.9411C26.8644 96.5224 28.2943 97.0565 28.9129 97.0929C28.0623 97.8272 27.2114 98.5612 26.3605 99.2952C26.3048 98.7914 25.838 97.3274 26.3306 96.9411ZM29.2012 77.8595C33.506 77.3068 28.5506 81.8692 27.3029 82.5843C27.5059 81.6134 28.0047 78.0134 29.2012 77.8595ZM40.6614 69.8717C40.0835 72.21 35.5897 74.7611 35.5426 70.9308C35.5254 69.5035 36.337 69.6191 37.5219 69.4819C38.1979 69.4041 40.992 68.535 40.6614 69.8717ZM25.1395 73.493C24.6351 74.8007 24.2305 76.1421 23.736 77.4514C23.5169 78.0312 23.2593 78.4294 22.8512 78.8888C22.5096 79.2729 22.1031 79.37 22.1166 79.9769C22.5446 79.8953 22.8794 79.6433 23.2251 79.4006C23.1414 80.604 22.7107 81.8992 22.502 83.0987C22.2522 84.5372 22.0442 85.9762 21.9669 87.4349C21.7995 90.6069 21.7981 93.7672 21.8687 96.9411C21.9047 98.5583 21.9209 100.176 22.0092 101.792C22.0533 102.595 22.1031 103.402 22.2038 104.201C22.2447 104.524 22.4816 105.21 22.3351 105.512C21.7602 106.699 19.2132 103.44 18.1071 103.918C18.2662 103.015 17.8993 103.213 17.2863 102.769C16.9894 102.554 16.7962 102.188 16.4866 101.996C16.3929 101.896 16.2898 101.808 16.1773 101.73C16.0494 101.557 15.9143 101.576 15.7725 101.785C14.5261 101.049 14.2042 99.481 13.5353 98.4264C13.1913 97.8841 12.8588 97.7996 12.8001 97.0496C12.7493 96.3962 12.8489 95.7305 12.8219 95.0744C12.7915 94.3343 12.7476 93.5181 12.5374 92.8014C12.2935 91.9693 11.9579 92.0374 11.304 91.594C11.5054 91.5068 11.6383 91.3608 11.7027 91.1556C11.4938 91.1923 10.8593 91.4478 10.7016 91.2641C10.3915 90.9033 11.1231 90.8552 11.3153 90.7111C10.4951 90.3514 10.6717 90.0558 10.9678 89.3968C11.0515 89.2102 11.1315 88.9315 11.2028 88.7744C11.3584 88.4307 11.448 88.6484 11.4994 88.2215C11.5482 87.8145 11.1829 87.0143 11.0752 86.5807C10.8949 85.8534 10.795 85.2249 10.957 84.467C11.0884 83.8534 11.4418 83.2978 11.4663 82.667C11.4733 82.4896 11.2001 82.4309 11.1963 82.26C11.191 82.0098 11.4273 81.9 11.4887 81.669C11.6456 81.0778 11.5748 80.4525 11.8432 79.8916C12.0847 79.3875 12.5724 78.7357 12.9175 78.2957C13.1568 77.9911 13.7439 77.6476 13.8082 77.2454C13.8508 76.9787 13.4306 77.0096 13.4491 76.8086C13.4747 76.5366 13.7057 76.4486 13.7689 76.2466C13.9436 75.6923 13.9875 75.1593 14.4389 74.7345C15.0077 74.1996 15.2546 74.4237 15.2782 73.5414C15.2895 73.111 14.941 73.0448 15.1278 72.5484C15.2292 72.2792 15.5286 72.1202 15.72 71.929C16.2885 71.3628 16.6718 70.8598 17.0767 70.1598C17.4347 69.5418 18.0056 69.1818 18.3725 68.648C18.85 67.952 18.1359 67.607 19.1052 67.4105C18.9674 66.9785 18.821 66.6292 19.1835 66.2634C19.4124 66.0326 19.9925 66.1738 20.1949 65.9072C20.4269 65.6006 20.084 64.8746 20.4336 64.6758C20.7179 64.5144 21.1435 65.0123 21.5903 64.7659C21.9306 64.5779 22.4447 63.5406 22.3351 63.1594C23.2154 63.6483 22.996 63.3115 23.4173 62.6841C23.5117 62.5434 23.7979 62.5123 23.8792 62.3704C24.0418 62.0865 24.0046 61.7972 24.2391 61.5665C24.6294 61.1826 25.2682 61.2812 25.6978 61.0069C26.0528 60.7804 26.034 60.5361 26.3172 60.3223C26.5592 60.1397 26.9568 60.1046 27.192 59.9153C27.6529 59.5445 27.6574 59.1531 28.234 58.8339C28.917 58.4558 29.5218 58.1342 30.1431 57.6331C30.5479 57.3066 30.9323 56.7276 31.4061 56.512C32.0613 56.214 32.5717 56.193 33.2126 55.7676C33.6758 55.4603 34.1138 54.9531 34.5685 54.6939C34.9117 54.4988 35.1523 54.5408 35.5846 54.4198C36.3628 54.2018 36.5523 53.4777 37.1871 53.1828C37.6229 52.9805 38.2574 53.1658 38.736 53.0595C40.2251 52.7293 41.6962 52.0171 43.1907 51.6226C45.0147 51.1414 46.8518 50.7198 48.6898 50.2942C47.0007 52.5552 44.8494 54.5953 42.6674 56.391C41.9511 56.9804 38.0264 59.6678 40.1419 60.8155C40.9912 61.2759 42.8359 59.7882 43.5215 59.4246C44.9021 58.6922 46.332 58.106 47.7781 57.5137C50.1162 56.5559 53.1612 54.8523 55.7597 54.9895C54.1779 56.906 52.2035 58.4444 50.3943 60.1376C48.7318 61.6933 46.2268 63.1528 47.0107 65.6993C44.6755 65.1126 42.578 64.419 40.15 64.5726C39.0625 64.6415 37.9742 64.5123 36.8915 64.6627C35.7144 64.827 34.6059 65.2162 33.4745 65.5576C32.5795 65.8274 31.5905 65.8487 30.767 66.2977C30.3692 66.5149 29.8771 66.8249 29.5197 67.0942C29.0429 67.4533 28.9347 67.6912 28.5603 68.1644C27.2251 69.8531 25.9331 71.4359 25.1395 73.493ZM17.8358 105.452C17.7628 105.16 17.6966 104.894 17.6129 104.56C18.3561 105.012 18.3561 105.012 17.8358 105.452ZM12.2187 96.1444C12.1272 96.2694 11.7422 96.3095 11.6305 96.2016C11.4914 96.0673 11.8572 95.5447 11.9159 95.4335C12.061 95.5433 12.3947 95.9036 12.2187 96.1444ZM10.6276 92.7568C10.7258 92.3997 10.8246 92.0432 10.9229 91.6862C11.0437 92.0169 11.5885 92.3827 11.6007 92.698C11.6082 92.9067 10.7352 92.8028 10.6276 92.7568ZM10.9433 93.2462C11.7961 93.8007 11.8854 94.455 11.9108 95.412C10.8903 95.0781 11.0367 94.1025 10.9433 93.2462ZM25.774 55.4808C25.6881 55.7108 25.3225 56.4277 25.055 55.9263C24.9694 55.7658 25.596 55.5467 25.774 55.4808ZM25.5293 54.6992C25.74 54.5115 26.1648 54.7449 26.4033 54.5934C26.5705 54.4871 26.515 54.3791 26.5936 54.3161C26.6092 54.3036 26.8364 53.8493 26.9296 53.7462C27.094 53.5651 27.4526 53.4521 27.6523 53.2884C28.2109 52.8314 28.5261 52.2301 28.8776 51.6186C29.2968 50.8886 29.4306 50.8041 30.1067 50.4697C30.573 50.2394 30.9342 49.9574 31.3135 49.5655C31.7506 49.1144 31.7186 48.7914 32.0774 48.2982C32.2548 48.055 32.51 48.0247 32.7165 47.8285C32.9641 47.5938 33.0898 47.2652 33.3189 47.0283C33.4177 46.9257 33.7353 46.926 33.7951 46.8382C33.8715 46.7271 33.931 46.2829 34.0026 46.201C34.1391 46.3834 34.2761 46.5658 34.4126 46.7481C34.9515 45.8121 35.3448 45.0387 36.246 44.4159C37.1925 43.7616 38.0094 42.8046 38.9876 42.2189C39.2076 42.0874 39.6555 42.0321 39.8235 41.838C40.1074 41.5097 39.8614 41.2178 40.0687 40.9389C40.3037 40.6231 40.7591 40.8788 41.0579 40.7427C41.4361 40.5702 41.5443 40.0667 42.031 40.122C40.4302 41.9927 40.4501 44.9032 40.3653 47.2397C40.3284 48.2464 40.9704 48.7539 40.0227 49.4927C39.2164 50.1211 38.0797 49.9345 37.1265 50.3482C35.9295 50.8676 34.6492 51.1438 33.4282 51.5966C32.1649 52.0647 31.1493 52.8843 29.9337 53.4266C28.8615 53.9046 28.1296 54.5841 27.149 55.1743C26.7845 55.3936 26.22 55.7121 25.7853 55.45C25.5131 55.2857 25.174 55.0158 25.5293 54.6992ZM43.6117 39.0145C43.6811 38.7489 45.0478 38.0503 45.384 37.8224C45.8884 37.4798 46.6354 36.6434 47.1985 36.9757C47.3937 36.2037 48.1552 35.3448 48.8279 35.1813C49.5744 34.9995 50.8546 34.3675 51.5889 33.8156C51.8035 33.6545 51.874 33.419 52.1265 33.268C52.5661 33.0046 53.0019 33.1484 53.4253 32.7895C53.4899 32.7347 54.0756 31.7796 54.0988 31.7889C54.1287 31.8912 54.1561 31.9949 54.1798 32.0991C54.6242 31.8556 55.0202 31.6621 55.2972 31.3516C55.3599 31.2811 54.9526 31.0979 55.0813 30.9584C55.2388 30.7874 55.5901 30.9786 55.7492 30.8164C55.2544 33.242 55.6226 36.364 58.1145 37.5938C55.1513 37.9099 52.257 37.0302 49.2573 37.5704C47.8214 37.8293 46.3616 38.2539 45.0556 38.9063C44.2553 39.3061 43.2319 40.7377 42.4353 40.0425C42.7514 39.6262 43.2337 39.3675 43.6117 39.0145ZM57.9893 32.0364C59.0975 30.6978 60.7783 30.1683 62.4709 30.6476C64.4527 31.2088 63.6168 32.5763 63.3175 34.0948C62.7458 33.2667 61.507 32.4455 60.452 32.4205C58.9565 32.3854 59.5218 33.616 60.4197 34.057C61.2362 34.4574 62.6365 34.569 63.2209 35.2977C63.7897 36.0065 63.5716 37.1658 63.6634 38.0019C63.2211 37.9368 62.7789 37.8719 62.3366 37.807C62.7078 35.856 61.0741 35.7616 59.5511 35.2113C58.0119 34.656 56.7284 33.5596 57.9893 32.0364ZM62.9528 27.232V29.0427C62.3369 28.6958 61.7204 28.3489 61.104 28.0019C61.7204 27.7454 62.3369 27.4886 62.9528 27.232ZM67.906 41.6998C69.9634 42.2506 72.0067 42.833 73.9847 43.5928C74.7029 43.8688 75.4897 43.9663 76.1936 44.2779C76.8639 44.5743 76.9646 44.5435 76.7261 45.1236C76.0582 46.7489 74.4762 46.4682 73.0902 46.2196C70.9206 45.8304 68.7959 45.2908 66.6535 44.783C64.5593 44.2872 62.4209 43.9621 60.3584 43.3403C58.2418 42.7028 56.1793 42.0988 54.0021 41.6777C53.3669 41.5549 48.3407 41.0995 48.3789 40.5808C51.5442 40.1746 54.8032 40.5747 57.9828 40.617C61.2871 40.6608 64.7008 40.8419 67.906 41.6998ZM65.113 35.4128C65.1523 34.2952 65.1681 33.1742 65.3087 32.0635C66.2503 33.2114 67.1003 33.5549 68.2874 32.479C69.4239 31.4488 69.6775 30.9118 71.1184 31.8803C72.3674 32.7201 73.5494 32.6813 74.876 31.9462C75.6851 31.4978 76.9856 29.6656 77.8362 30.0428C78.2413 30.2225 78.5385 30.9472 78.9476 31.2138C79.4612 31.5477 80.2507 31.7796 80.8491 31.9093C82.2629 32.215 83.1049 31.3173 83.9921 30.3568C85.2788 28.9643 85.2411 29.773 86.4342 30.7388C87.7645 31.8157 88.877 31.2896 90.0819 30.3703C90.8157 32.4941 91.0902 34.8134 91.2978 37.0398C91.3675 37.7916 91.6289 38.859 90.9451 39.3906C90.4633 39.7655 89.4407 39.7801 88.86 39.9872C86.786 40.7278 84.793 41.7787 83.0583 43.1239C82.3824 43.6479 81.7932 44.2896 80.8696 44.1702C79.9894 44.0565 79.1342 43.3288 78.4262 42.8482C77.658 42.3274 76.8806 41.7356 75.9829 41.4451C75.4571 41.2749 74.6149 41.3366 74.1548 41.0248C73.2994 40.4447 74.3061 38.9236 74.0929 37.9025C73.9317 37.1273 73.48 35.5109 72.3989 35.9653C70.79 36.6413 71.7263 39.2806 72.6111 40.1044C70.8011 39.787 68.7973 39.3234 67.0516 38.7345C65.7033 38.2794 65.0645 36.7761 65.113 35.4128ZM95.4677 40.856C99.1832 39.8256 102.66 39.1309 106.526 38.9432C108.238 38.86 109.895 38.9127 111.587 38.9278C112.562 38.9366 113.304 38.1606 112.526 37.2679C111.449 36.032 108.162 36.5025 106.706 36.447C102.804 36.2981 99.2255 36.7362 95.5293 38.0067C95.9202 37.2955 96.8591 37.2033 97.5027 36.8356C98.292 36.3842 98.8287 35.6407 99.166 34.8155C100.044 32.6696 99.1604 30.6473 98.2424 28.6867C100.045 29.1658 101.911 30.2148 103.723 30.4812C104.104 30.537 104.347 30.5011 104.683 30.6378C104.89 30.7215 104.955 31.0113 105.211 31.0745C105.334 31.1054 105.631 30.8294 105.771 30.8685C106.323 31.0227 105.886 31.0636 106.236 31.2867C106.513 31.4637 106.49 31.6918 106.998 31.6081C107.223 31.5714 107.468 31.2271 107.587 31.2178C107.738 31.2056 107.703 31.0238 107.934 31.0769C108.355 31.1734 108.318 31.7091 108.458 31.9728C108.608 32.2536 108.395 32.6268 108.85 32.7802C109.189 32.8953 109.275 32.5409 109.563 32.5665C109.739 32.5819 110.103 32.8315 110.257 32.9833C110.756 33.473 111.439 34.0134 112.11 34.3322C112.044 34.2665 112.427 34.1089 112.335 34.0719C112.274 34.0472 112.675 34.1429 112.669 34.1416C113.056 34.2285 113.261 34.8158 113.456 35.03C113.817 35.4224 114.376 35.8369 114.88 36.0102C115.753 36.3098 115.726 35.9514 116.045 36.9755C116.665 36.0123 116.903 37.6252 117.672 37.8028C118.07 37.8947 118.024 37.7262 118.386 37.9322C118.634 38.0734 118.8 38.5057 118.987 38.7143C119.068 38.4134 119.148 38.1122 119.228 37.8118C119.782 38.8483 120.978 40.492 122.29 40.1948C122.29 40.4777 122.171 40.8158 122.393 41.0572C122.548 41.226 122.799 41.0344 122.92 41.1325C123.026 41.2181 123.279 41.5589 123.36 41.615C123.52 41.7255 123.809 41.8064 123.948 41.9164C124.07 42.0135 124.131 42.4768 124.266 42.644C124.521 42.9588 124.961 43.0213 125.169 43.3988C125.217 43.0266 125.264 42.6541 125.312 42.282C125.725 42.5972 125.76 42.8421 125.861 43.3031C126.006 43.9597 125.814 43.8058 126.273 44.083C126.724 44.3555 126.959 44.325 127.372 44.7979C127.777 45.2615 127.78 45.5473 128.365 45.0643C128.474 45.4216 128.509 45.8836 128.799 46.1574C129.018 46.3645 129.926 46.3733 130.012 46.8619C128.307 45.4412 129.429 47.5991 130.013 46.8656C130.136 47.6507 130.718 47.9043 131.383 48.4636C132.002 48.9844 132.104 48.9466 132.315 49.8221C132.311 49.8029 132.627 49.9965 132.65 50.0353C132.046 50.1203 132.982 50.7865 133.14 50.9086C133.256 50.9974 133.406 50.7849 133.598 50.9288C133.817 51.0936 133.996 51.4679 134.174 51.6936C134.658 52.3056 135.016 52.8314 135.526 53.3288C136.075 53.8658 136.342 54.5448 136.87 55.1724C137.455 55.8695 137.772 56.671 138.262 57.4276C138.727 58.1472 139.345 58.7249 139.884 59.3839C140.743 60.4327 141.035 62.742 142.636 62.8029C142.542 62.8989 142.673 63.6145 142.688 63.7467C142.764 64.3966 142.714 65.0222 143.103 65.611C143.192 64.9392 143.548 65.1982 143.857 65.5509C144.371 66.1379 143.92 65.9901 143.947 66.5851C143.98 67.306 144.063 66.7483 144.341 67.3778C144.559 67.8709 144.678 68.191 144.795 68.7381C143.891 68.8091 143.476 68.0791 143.142 67.372C143.002 67.0761 142.954 66.5899 142.706 66.3586C142.443 66.1124 142.081 66.093 141.811 65.8184C141.292 65.2907 141.067 64.4679 140.454 63.9543C139.763 63.3742 139.61 63.1001 139.038 62.4065C138.406 61.6393 137.532 61.1005 136.869 60.3585C136.205 59.6149 136.259 60.0209 135.424 59.7518C134.537 59.4652 133.102 56.7095 131.983 57.771C132.028 57.0767 130.975 56.4235 130.443 56.172C130.213 56.0633 129.945 56.1616 129.715 55.9987C129.465 55.8219 129.447 55.4811 129.195 55.2689C129.195 55.2692 128.809 55.3614 128.731 55.3224C128.571 55.2426 128.57 54.9603 128.429 54.8675C128.04 54.6102 127.575 54.3406 127.162 54.1215C126.156 53.5891 125.268 52.9335 124.298 52.2925C123.467 51.7433 122.462 50.7514 121.501 50.4619C120.662 50.2091 120.135 50.3381 119.448 49.8316C119.074 49.556 119.184 49.4632 118.583 49.2917C118.01 49.1285 117.689 49.2125 117.386 48.613C116.855 47.564 117.19 45.5165 117.087 44.3401C116.978 43.0917 116.849 41.8122 116.519 40.5984C116.13 39.1636 115.615 38.4137 114.056 38.7516C110.969 39.4217 107.919 40.0595 104.817 40.6478C98.6368 41.8204 92.5624 43.7337 86.5179 45.4325C86.0576 45.5622 83.489 46.1428 84.0137 44.8311C84.2554 44.2261 85.8813 44.0006 86.4253 43.8106C89.4129 42.7663 92.4141 41.7024 95.4677 40.856ZM94.4294 38.1861C93.978 38.356 93.5269 38.5259 93.0755 38.696V37.4564C93.5269 37.6996 93.978 37.9426 94.4294 38.1861ZM92.5535 31.6315C92.9457 31.9481 93.7433 31.1862 94.0766 31.0317C94.6464 30.7683 95.3716 30.5421 96.0082 30.596C97.1818 30.6965 98.0403 31.8378 97.8252 32.9947C97.4613 34.9524 94.637 35.8781 93.0798 36.6434C93.03 35.9496 92.8025 35.1156 93.2951 34.5156C93.7228 33.9946 94.5522 34.0323 94.9468 33.478C95.9398 32.0853 93.2485 31.959 92.6469 33.0665C92.4095 32.3586 92.1724 31.6509 91.9349 30.9432C92.5078 30.8494 92.2561 31.3917 92.5535 31.6315ZM95.3315 27.7996C94.771 28.1574 94.2106 28.5153 93.6504 28.8731C93.3726 27.6345 94.3194 27.4716 95.3315 27.7996ZM146.392 70.9063C145.659 71.2522 145.475 70.4262 144.947 70.3906C145.571 70.012 145.571 70.012 146.392 70.9063ZM149.377 88.9422C149.468 90.1294 149.397 91.3303 149.557 92.5127C149.679 93.4123 150.048 94.2495 150.087 95.1592C150.173 97.1517 149.492 99.1806 148.116 100.641C146.815 102.023 144.953 103.212 143.196 103.793C142.404 104.054 141.578 104.634 140.809 104.848C139.959 105.086 139.15 104.57 138.449 105.495C137.981 101.523 138.323 97.3726 138.286 93.3754C138.249 89.3694 138.293 85.3621 137.606 81.3994C136.995 77.8701 135.791 73.9003 133.57 71.0129C132.668 69.8406 131.558 68.8803 130.386 67.9813C129.779 67.515 129.171 67.0163 128.494 66.6481C127.452 66.081 126.565 66.1594 125.432 65.9981C123.811 65.7668 122.304 65.5714 120.676 66.0223C119.161 66.4423 117.493 66.9203 116.136 67.6498C114.784 68.3766 113.214 68.6762 111.811 69.327C110.856 69.7699 108.874 71.2493 107.814 70.9829C106.789 70.7248 105.272 69.0066 104.617 68.2367C103.78 67.2531 103.088 66.1129 102.346 65.0546C102.086 64.683 101.554 64.1085 101.487 63.6315C101.369 62.8032 101.705 63.0738 102.506 63.1666C104.566 63.405 106.503 63.7825 108.478 64.423C109.46 64.7414 111.381 66.0305 112.364 65.258C113.864 64.0787 111.585 62.0516 110.75 61.3708C109.327 60.2104 107.673 59.3488 106.157 58.3176C104.546 57.2221 102.416 56.0555 101.379 54.3685C104.406 55.2511 107.431 56.2621 110.37 57.3999C111.715 57.9204 113.044 58.4705 114.307 59.1627C115.016 59.5514 116.45 60.6031 117.304 60.0993C119.161 59.0045 114.896 55.8248 114.28 55.1751C113.324 54.1654 112.387 53.1653 111.336 52.2492C110.627 51.6311 109.513 51.1965 109.183 50.2849C110.36 50.7057 111.312 51.5298 112.414 52.0897C112.991 52.3832 113.517 52.552 114.154 52.6419C114.834 52.7378 114.915 52.8447 115.45 53.1113C115.867 53.3195 116.295 53.5973 116.763 53.7387C117.096 53.8397 117.679 53.857 117.97 54.0439C118.119 54.2537 118.273 54.4602 118.432 54.6631C118.61 54.7146 118.785 54.7739 118.957 54.8417C119.216 55.0693 119.369 55.3832 119.621 55.618C121.446 57.3226 123.887 58.5425 125.934 59.9706C127.87 61.3216 129.924 62.5437 131.783 64.0181C133.923 65.7152 136.144 67.5392 137.964 69.5742C138.992 70.7242 139.838 72.0282 140.702 73.3C141.328 74.2209 142.237 74.9846 142.778 75.9342C143.957 78.0043 144.936 80.2419 146.205 82.2788C147.498 84.354 149.183 86.4161 149.377 88.9422ZM131.983 100.953C132.336 99.5166 134.325 97.8392 135.597 97.2057C134.956 98.7712 133.249 99.8386 131.983 100.953ZM135.264 105.965C134.179 108.187 129.412 108.441 130.059 105.153C130.375 103.542 131.721 102.554 132.876 101.499C133.409 101.012 134.717 99.2694 135.543 99.5501C135.504 100.803 135.43 102.062 135.433 103.315C135.434 104.151 135.648 105.179 135.264 105.965ZM133.886 80.3576C134.326 81.3332 134.764 82.1459 133.948 83.0189C133.579 83.4129 132.379 84.2748 131.837 84.0834C130.094 83.4695 133.416 80.7965 133.886 80.3576ZM123.345 71.6754C123.765 71.6528 124.172 71.7145 124.587 71.6892C125 71.664 125.044 71.5917 125.427 71.6433C125.467 71.7012 125.507 71.7592 125.548 71.8174C125.6 72.2066 125.807 72.2488 126.169 71.9445C126.672 72.0548 126.999 72.1287 127.48 72.3969C126.182 73.321 124.602 74.3955 123.011 74.7058C120.497 75.1957 121.191 71.7927 123.345 71.6754ZM84.7948 92.4569C84.5343 92.975 83.7843 91.6806 83.5986 91.4395C83.9448 91.4385 85.0586 91.9343 84.7948 92.4569ZM105 78.8207C106.953 77.6949 109.274 76.7062 111.372 75.868C111.741 77.6237 109.942 79.89 108.833 81.0913C107.937 82.063 106.857 83.0705 105.641 83.6296C104.328 84.2341 102.892 83.9685 102.956 82.2725C102.979 81.6525 103.122 80.6551 103.377 80.0885C103.707 79.358 104.33 79.2062 105 78.8207ZM78.5899 46.885C78.8806 46.8683 82.0395 46.465 82.0228 46.8531C81.973 48.0199 78.907 47.1038 78.5899 46.885ZM56.2525 69.412C57.9209 67.3791 60.6144 65.1846 60.6537 62.3433C60.7118 58.1621 56.0135 60.2482 53.6514 60.422C54.9004 59.21 61.177 54.1253 57.4644 52.3194C56.3973 51.8002 54.8805 52.3074 53.8097 52.5794C51.9098 53.0619 50.1434 53.8977 48.2769 54.4791C49.6107 53.077 51.9149 51.4836 51.8395 49.3603C51.7472 46.7755 49.5988 47.4005 47.7412 47.7796C47.0273 47.9255 43.8383 49.1785 43.2391 48.3278C43.0197 48.0162 43.3748 47.6203 43.4499 47.3428C43.5829 46.8521 43.5417 46.6806 43.5463 46.1792C43.5554 45.1677 44.2359 43.8685 43.6809 42.9277C43.5541 43.1414 43.4453 43.3639 43.3549 43.595C43.1718 43.0476 43.2948 42.4667 43.1118 41.9193C47.7496 43.0906 52.4675 43.7319 57.1344 44.7317C59.497 45.2379 61.7204 46.1093 64.1154 46.5017C66.5307 46.897 68.9041 47.5023 71.3238 47.8795C73.5317 48.2233 75.6469 48.7962 77.8332 49.2353C79.9646 49.6636 82.1504 48.7252 84.2306 48.2499C88.8899 47.1857 93.5476 46.0955 98.2131 45.0629C103.597 43.8709 109.197 42.8517 114.35 40.8637C114.45 43.5133 114.665 46.1579 114.993 48.7895C112.717 47.727 109.34 46.3414 107.039 48.2427C106.118 49.0033 105.834 50.3168 106.198 51.4336C106.594 52.6496 107.808 53.2142 108.608 54.1295C106.172 53.5125 99.8861 49.1633 98.7673 53.5595C97.977 56.6646 101.832 58.6701 103.716 60.4178C101.845 60.056 99.3383 58.5781 98.2392 60.9532C97.2895 63.0065 98.4336 65.2407 99.6053 66.9341C100.24 67.8518 100.954 68.7153 101.63 69.6042C101.986 70.0745 102.335 70.5514 102.71 71.0079C103.086 71.4657 103.796 71.945 104.06 72.4376C104.591 73.431 103.519 73.4917 102.686 73.8505C101.646 74.2988 100.753 75.0514 99.8021 75.6511C97.6241 77.0244 95.7204 78.3 93.1468 78.7389C90.4969 79.1905 87.9454 79.6624 85.3305 80.2927C82.7237 80.9209 80.5958 81.5244 77.9312 80.7125C76.7164 80.3424 75.7269 80.0133 74.4383 80.083C73.0848 80.1561 72.2934 80.0867 71.1806 79.2589C66.3924 75.6971 61.1947 72.7744 56.2525 69.412ZM47.6198 65.8364C49.4704 64.9193 51.3335 63.9979 53.2452 63.2099C54.8275 62.5573 57.2302 61.7972 58.9624 62.0833C58.4741 63.3221 57.5831 64.3384 56.6272 65.2505C55.782 66.0574 54.726 67.2749 53.7034 67.838C52.7744 68.3489 51.6939 67.5394 50.7779 67.2002C49.7714 66.8278 48.3862 66.6542 47.6198 65.8364ZM48.085 70.4626C49.0072 70.0844 50.9892 71.3543 51.828 71.6845C53.4764 72.3336 55.1338 73.0115 56.5866 74.0356C54.8127 76.0602 52.8037 77.9113 50.4166 79.2115C48.8462 80.0673 46.1991 81.0485 44.7175 79.4949C42.8563 77.5428 45.0938 73.5653 46.4114 71.8923C46.4551 72.1787 46.4989 72.4644 46.5428 72.7508C46.9633 72.0861 47.2841 70.7915 48.085 70.4626ZM81.9418 87.7903C80.791 88.0295 80.4001 87.8134 79.6405 86.942C79.1272 86.3531 78.6227 85.7414 78.0437 85.2119C77.4529 84.6714 75.9939 83.3683 77.8529 84.1187C79.5474 84.8025 80.9988 85.1444 82.8632 84.8764C84.9948 84.5704 86.9822 83.6801 89.084 83.2298C87.9316 84.2253 86.7879 85.231 85.6336 86.2239C84.4139 87.2727 83.4912 87.4678 81.9418 87.7903ZM82.2048 95.7983C79.6833 97.6722 74.6073 97.4694 76.3158 93.3464C76.5753 92.7201 76.9385 92.1307 77.3587 91.5972C77.4986 91.4191 77.7479 91.0501 77.9476 90.9304C78.5054 90.5963 78.3506 90.5559 78.8868 91.1128C79.3493 91.5934 82.9644 95.5189 82.2048 95.7983ZM81.4572 88.6341C81.6882 88.5599 82.6613 88.0027 82.8831 88.3111C83.1076 88.6232 81.1996 89.703 81.4572 88.6341ZM99.8126 117.213C99.2457 118.553 94.7086 120.492 95.5538 117.792C95.9283 116.595 96.2812 115.69 97.6936 115.599C98.5087 115.547 100.312 116.033 99.8126 117.213ZM107.951 99.0586C108.698 97.9846 111.165 96.5323 112.218 98.134C112.725 98.9057 111.494 99.301 110.749 99.1027C110.35 98.9956 110.023 98.7598 109.588 98.742C109.029 98.7194 108.483 99.1524 107.951 99.0586ZM109.931 100.125C109.423 100.633 106.36 103.178 105.864 102.785C106.865 101.373 108.013 99.796 109.931 100.125ZM104.929 125.884C103.865 125.944 104.396 124.361 104.499 123.728C104.756 124.169 106.11 125.818 104.929 125.884ZM107.631 123.047C107.287 122.442 106.36 121.542 106.57 120.764C106.73 120.169 108.177 119.37 108.783 119.711C109.588 120.164 108.421 123.147 107.631 123.047ZM132.87 116.706C132.416 118.254 131.944 117.855 130.517 118.155C129.086 118.456 128.096 119.656 126.836 120.3C127.274 119.386 127.545 118.272 128.278 117.531C128.448 117.359 129.486 117.021 128.895 116.625C128.377 116.278 127.633 117.403 127.411 117.71C126.32 119.219 125.556 121.062 124.926 122.799C124.616 123.651 124.368 124.52 124.221 125.416C124.09 126.214 124.232 127.049 124.098 127.827C123.884 129.079 122.162 129.085 121.126 129.408C120.189 129.7 119.255 130.017 118.282 130.174C117.439 130.311 116.563 130.062 115.746 130.227C114.86 130.404 114.463 130.923 113.456 130.806C112.636 130.71 111.868 130.337 111.037 130.3C110.259 130.266 109.483 130.531 108.709 130.315C107.928 130.097 107.966 130.012 108.144 129.255C108.255 129.459 108.366 129.663 108.477 129.868C108.788 129.627 109.004 128.892 109.194 128.547C109.49 128.013 109.731 127.828 109.621 127.162C109.46 126.179 108.562 125.48 108.359 124.545C108.146 123.57 108.877 122.772 109.309 121.958C109.899 120.843 109.891 120.016 109.396 118.864C109.769 118.961 110.142 119.058 110.515 119.156C110.004 118.06 108.27 118.504 107.401 118.829C106.964 118.991 106.272 119.633 105.802 119.616C105.156 119.594 104.819 118.755 104.541 118.293C103.738 116.957 102.821 115.637 101.87 114.397C101.609 114.055 101.267 113.836 101.357 113.447C101.434 113.117 102.183 112.649 102.426 112.446C103.338 111.685 104.498 111.263 105.354 110.462C106.648 109.251 108.14 108.384 109.463 107.197C110.841 105.96 112.261 104.825 113.697 103.657C115.151 102.473 116.412 101.079 117.856 99.8838C118.23 100.553 118.955 102.951 119.784 103.137C120.75 103.353 120.721 102.223 120.673 101.544C120.605 100.575 120.06 99.6341 120 98.7098C119.935 97.7211 120.898 97.279 121.625 96.7072C122.748 95.8235 125.233 93.8114 123.897 92.1549C122.746 90.7284 119.004 93.4636 117.973 94.2862C117.096 94.9851 116.419 95.6172 115.432 96.1686C114.738 96.5559 113.573 98.0462 112.751 97.9085C111.772 97.745 111.39 96.6897 110.193 96.7245C109.023 96.7582 108.03 97.5903 107.304 98.4259C105.664 100.314 105.101 102.841 103.606 104.809C102.87 105.78 101.914 106.581 101.115 107.499C100.237 108.507 100.051 109.668 99.1854 110.654C96.7089 107.396 94.0106 104.311 91.3993 101.16C90.0948 99.586 88.8178 97.9936 87.5416 96.398C87.0632 95.7999 86.5238 95.2387 86.0858 94.6105C85.4858 93.7502 85.5938 93.0593 85.3582 92.0999C85.2541 91.6745 84.765 91.1652 84.8958 90.7587C85.0721 90.2127 86.3082 89.7838 86.7542 89.5605C88.5747 88.6479 90.2259 87.5072 91.9236 86.392C95.0672 84.3274 98.2473 82.3916 101.591 80.628C101.533 81.3877 101.033 82.1751 101.369 82.9373C101.525 82.4989 101.773 80.5453 102.366 80.4615C102.252 80.4775 102.346 82.9666 102.438 83.322C102.711 84.3825 103.505 85.1077 104.641 85.1005C106.804 85.0867 108.743 82.7627 109.944 81.2232C110.757 80.1808 111.538 78.9686 111.824 77.6638C112.082 76.4925 111.799 75.678 113.031 75.083C115.561 73.8628 118.111 72.8685 120.817 72.2215C120.696 73.3728 120.358 74.7906 121.418 75.6187C122.587 76.5329 124.118 75.7181 125.219 75.1133C126.31 74.5144 127.992 72.8691 129.274 73.347C130.534 73.8171 131.411 75.3781 132.117 76.4146C132.738 77.3283 133.415 77.9871 132.695 79.0055C131.888 80.1468 131.363 81.2607 130.716 82.5003C130.468 82.9769 130.231 83.2877 130.406 83.7758C130.463 83.9345 131.111 84.8777 131.287 85.013C132.41 85.8757 133.925 84.2346 134.727 83.6118C135.009 86.2944 135.073 88.9651 135.187 91.6559C135.27 93.6266 136.043 95.567 134.405 97.0076C132.768 98.4479 131.401 99.9266 130.403 101.877C129.87 102.918 129.392 103.988 128.816 105.008C128.431 105.689 127.618 106.689 128.115 107.491C128.64 107 128.796 106.252 129.233 105.697C129.495 106.848 129.759 108.125 130.991 108.612C132.409 109.173 133.819 108.203 135.075 107.662C134.624 110.738 133.746 113.728 132.87 116.706ZM131.421 120.242C130.448 122.296 129.569 124.773 127.772 126.285C127.377 126.617 125.7 127.914 125.063 127.697C124.521 127.512 124.819 126.432 124.913 125.969C125.392 123.618 126.221 122.139 128.151 120.639C128.949 120.018 129.975 119.225 131.005 119.072C132.114 118.907 131.795 119.453 131.421 120.242ZM158.871 168.999C156.348 165.611 152.781 162.978 149.411 160.432C147.885 159.279 146.203 158.414 144.66 157.261C142.917 155.957 141.146 154.699 139.192 153.716C135.49 151.853 131.45 150.554 127.955 148.35C126.251 147.276 124.387 146.237 122.785 145.031C122.081 144.5 121.459 143.823 120.823 143.216C120.232 142.652 118.964 141.833 118.729 141.007C119.712 140.848 120.271 139.906 121.149 139.81C121.438 139.778 123.25 140.252 123.002 139.384C123.659 139.367 123.735 139.358 124.286 139.216C124.514 139.157 124.784 139.249 125.015 139.168C125.368 139.045 125.608 138.69 125.964 138.554C126.218 138.457 127.158 138.565 127.301 138.445C127.69 138.116 127.277 138.145 127.044 137.735C127.801 137.716 128.32 138.093 129.079 137.692C129.31 137.57 129.505 137.288 129.729 137.142C130.126 136.883 130.27 137.285 130.541 136.747C130.796 137.489 130.789 137.283 131.402 137.065C132.013 136.848 132.454 136.691 133.15 136.636C134.812 136.507 136.479 136.706 138.134 136.589C138.739 136.546 139.256 136.411 139.857 136.489C140.386 136.558 140.227 136.921 140.667 136.431C140.769 136.318 140.439 136.006 140.597 135.842C140.667 135.77 140.895 135.821 140.981 135.784C141.755 135.45 141.758 135.916 141.895 136.523C142.349 136.418 142.812 136.323 143.206 136.06C143.007 135.885 142.674 135.691 142.866 135.371C143.52 135.616 143.948 135.503 143.621 136.212C144.279 136.427 144.402 136.147 144.993 136.085C145.343 136.049 145.831 136.264 146.122 135.988C146.44 135.687 145.938 135.359 146.522 135.101C146.642 135.161 146.731 135.252 146.789 135.373C147.105 135.467 147.048 135.59 146.619 135.741C147.768 136.329 147.498 135.672 147.981 134.976C148.092 134.816 148.591 134.318 148.818 134.558C149.163 134.923 148.459 135.039 148.61 135.402C148.872 136.03 149.785 135.225 150.065 134.906C150.277 134.666 150.363 134.204 150.592 134.024C150.909 133.774 151.366 134.16 151.763 134.091C153.579 133.777 155.293 131.366 153.926 129.753C153.558 129.319 153.247 129.405 152.809 129.131C152.376 128.861 152.133 128.393 151.786 128.006C150.992 127.124 150.021 126.463 148.912 126.041C146.339 125.061 143.567 124.346 140.866 123.82C139.615 123.576 138.283 123.204 137.002 123.206C136.247 123.207 135.111 123.787 134.405 123.509C133.033 122.97 135.047 120.206 135.38 119.314C136.356 116.692 137.092 113.896 137.575 111.143C137.669 110.604 137.633 109.907 137.83 109.393C138.055 108.803 138.104 108.887 138.586 108.839C139.458 108.751 140.412 109.203 141.32 109.047C142.327 108.874 143.415 108.955 144.431 108.647C144.898 108.506 145.331 108.352 145.638 107.963C145.735 107.841 145.627 107.735 145.689 107.649C145.708 107.622 146.055 107.252 146.066 107.231C146.063 107.039 146.08 106.849 146.117 106.661C146.469 106.95 146.295 107.556 146.889 107.57C146.995 106.924 146.996 106.794 147.425 106.431C147.392 106.459 147.748 106.16 147.702 106.192C147.724 106.077 147.767 105.969 147.831 105.87C148.031 105.774 148.243 105.723 148.466 105.718C148.93 105.247 148.737 104.995 148.737 104.361C149.112 104.553 149.486 104.745 149.86 104.937C149.951 103.059 151.109 102.03 151.878 100.508C152.206 99.8596 152.54 99.3526 152.619 98.5702C152.664 98.1188 152.546 97.7206 152.735 97.2952C152.907 96.9092 153.291 96.7014 153.451 96.2808C153.767 95.4535 153.531 94.3973 153.549 93.5381C153.573 92.3466 153.693 91.1588 153.733 89.9678C153.81 87.6297 153.572 85.227 153.218 82.9161C153.048 81.8107 152.765 80.7383 152.542 79.6446C152.359 78.7455 151.921 77.9023 151.765 77.0662C151.7 76.7185 151.8 76.4066 151.694 76.0222C151.554 75.5171 151.321 75.0202 151.147 74.5242C150.741 73.3651 150.34 72.2079 149.883 71.0669C148.998 68.8556 147.963 66.7108 146.979 64.5421C146.032 62.4565 145.249 60.3064 144.023 58.3588C142.815 56.4408 141.515 54.5549 140.184 52.719C138.798 50.8067 137.046 49.1638 135.701 47.2341C133.177 43.6109 129.657 40.6252 125.974 38.1598C118.373 33.0721 110.16 27.9924 101.046 26.2479C99.6726 25.9852 98.2815 25.8029 96.8817 25.7688C96.013 25.7476 94.574 26.1623 93.7516 25.872C92.8305 25.5469 92.9148 24.5252 92.6843 23.7237C92.3877 22.6936 91.719 22.0186 90.9594 21.2902C90.1599 20.5238 89.4345 19.6281 88.4374 19.1068C87.4269 18.5789 86.235 18.3813 85.1154 18.2218C84.116 18.0791 82.6225 18.2123 81.7095 17.7821C80.8777 17.3903 81.2885 16.9822 82.0672 17.3177C82.1243 16.9785 82.1703 16.7594 82.3905 16.4973C82.5009 16.3654 83.0231 16.1807 83.0357 16.0579C83.0505 15.9138 82.6126 15.5038 82.5499 15.3182C82.4153 14.9184 82.4917 14.3648 82.6516 13.9896C83.4368 14.6789 83.6643 14.9842 84.541 14.3253C84.9111 14.0471 85.0247 13.9244 85.4535 13.7841C85.5698 13.7459 85.8307 13.8637 85.9321 13.7976C86.3195 13.5457 85.9631 13.605 86.1472 13.3072C86.1009 13.3824 86.4264 12.5909 86.4107 12.7564C86.4503 12.3348 86.5766 12.4643 86.3189 11.9463C85.814 10.933 84.5286 10.8916 85.1838 9.73508C85.4414 9.28007 85.6683 9.32539 85.741 8.66565C85.7801 8.31094 85.7316 7.90425 85.73 7.54345C85.7268 6.80555 85.8675 6.28891 85.1674 5.91319C84.4944 5.55183 83.8737 5.94828 83.6005 5.05207C83.3143 4.11165 83.6026 2.906 82.5711 2.26202C81.8171 1.79153 80.7288 2.19378 79.896 1.96367C79.0612 1.73326 78.2935 0.889795 77.4464 1.53739C76.8445 1.99764 76.5253 3.12923 75.3912 2.51731C74.8792 2.24131 74.5976 1.31472 74.2746 0.795048C73.7605 -0.0332123 73.3481 -0.332392 72.5567 0.474308C72.0689 0.97186 71.0404 2.18301 70.9774 2.87176C70.9085 3.63205 71.5801 3.94975 70.7367 4.39951C69.898 4.84708 69.4274 4.51887 68.7464 5.42723C68.071 6.32841 68.5938 6.82626 67.8115 7.68849C66.8333 8.76622 66.313 9.23144 66.3267 10.6835C66.3361 11.6795 65.4451 12.5398 65.9649 13.4846C66.5474 14.5435 68.2476 14.9839 69.2783 15.4149C68.9343 16.0428 68.4621 16.4455 68.8638 17.0917C69.2277 17.6771 70.2562 17.7989 70.8939 17.6925C71.3228 17.6213 71.3381 17.6854 71.6757 17.3873C71.8969 17.1925 71.5935 16.949 72.049 16.841C72.5335 16.7254 73.3077 17.6638 73.6224 17.8983C72.919 18.7998 70.9874 18.9683 69.9653 19.4253C69.3426 19.7039 68.7701 20.1162 68.1359 20.3653C67.5606 20.5913 66.8605 20.5389 66.3388 20.8885C65.4381 21.4925 65.0632 22.9887 64.5111 23.8683C63.886 24.8642 63.2801 25.3265 62.0809 25.5333C60.585 25.7909 59.3804 25.8946 57.9853 26.5379C56.2816 27.3238 54.6022 28.1535 52.9289 29.0004C50.2301 30.3666 47.7229 31.7689 45.2168 33.4211C42.595 35.1502 40.0447 36.9547 37.5149 38.7611C35.0126 40.5479 32.9119 42.7458 30.7382 44.9066C28.9813 46.6532 27.4394 48.5383 25.6892 50.2844C23.6229 52.3462 22.1031 54.9483 20.1873 57.1357C19.1391 58.332 18.1362 59.5086 17.4785 60.9181C16.9456 62.0609 16.0185 63.182 15.3996 64.3807C14.6091 65.9133 13.8607 67.4217 12.973 68.9035C12.6087 69.5115 12.1759 70.0333 11.7915 70.6139C11.2989 71.3572 11.328 72.0752 11.1955 72.9323C11.0572 72.7231 10.9191 72.5139 10.7807 72.3052C10.5298 72.8462 10.2267 73.3781 10.0095 73.9322C9.87088 74.2855 9.89269 74.7871 9.75352 75.0963C9.57882 75.4844 9.36616 75.4328 9.1484 75.7561C8.91555 76.1017 8.84045 76.5661 8.59523 76.9367C7.53437 78.5392 7.12629 80.5724 6.5812 82.4009C5.8501 84.8538 5.96531 87.673 6.00515 90.2023C6.04741 92.8737 6.19519 95.5455 6.60192 98.1887C6.97044 100.583 7.75806 102.879 8.99119 104.978C10.0658 106.807 11.5474 107.872 13.4454 108.809C14.317 109.24 15.1259 109.107 16.0406 109.175C17.0427 109.25 17.7262 109.519 18.7865 109.283C19.295 109.169 19.5359 108.804 19.94 108.682C20.19 108.606 20.3249 108.729 20.565 108.701C20.9085 108.66 21.6229 108.493 21.9954 108.533C23.1548 108.658 22.9602 110.389 23.0743 111.272C23.2498 112.634 23.3782 114.01 23.6151 115.362C24.1128 118.208 25.1877 120.865 25.8227 123.661C22.8789 124.016 20.3537 124.558 17.5946 125.659C14.8266 126.762 12.0278 127.137 9.11475 127.686C6.38953 128.199 3.76823 129.158 1.58677 130.896C0.564411 131.71 -0.497787 132.663 0.252966 134.004C0.733189 134.861 1.59861 135.079 2.3456 135.577C2.49661 135.389 2.05999 134.989 1.98005 134.878C2.60805 135.006 2.58894 135.295 3.04763 135.547C3.44844 135.767 3.77658 135.76 4.21534 135.915C5.28669 136.295 5.81322 137.244 6.87218 137.51C7.20543 137.594 7.64124 137.794 7.98176 137.851C8.39118 137.919 8.69752 137.742 9.11233 137.817C9.33602 137.963 9.57828 138.067 9.83831 138.129C10.009 138.051 10.1775 137.969 10.3436 137.882C10.9395 137.943 11.3075 138.313 11.7918 138.617C11.8241 138.234 11.7775 137.836 12.1447 137.586C12.2882 137.958 12.0564 138.194 12.4478 138.451C12.9436 138.776 13.5948 138.37 14.0387 138.164C14.1644 139.403 17.068 139.33 17.9884 139.312C19.263 139.288 20.5362 138.789 21.8221 139.067C22.4781 139.209 23.1782 139.358 23.8313 139.542C24.6176 139.764 25.568 139.963 26.3419 140.242C26.6499 140.354 27.0267 140.71 27.3543 140.686C27.6152 140.667 27.6852 140.287 27.9888 140.298C28.3323 140.31 28.4478 140.688 28.7449 140.802C29.1902 140.972 29.5993 140.649 30.0222 140.812C30.1743 140.871 30.3802 141.122 30.5749 141.204C30.8702 141.329 31.4548 141.33 31.7835 141.39C32.2494 141.475 32.6667 141.418 33.0659 141.446C33.3878 141.469 33.3808 141.683 33.5348 141.697C33.7116 141.713 34.0193 141.113 34.2567 141.025C34.6024 140.896 35.2298 141.202 35.5825 141.255C33.0282 144.675 29.9485 147.697 26.6101 150.343C23.0092 153.198 19.3216 156.048 15.4602 158.552C11.9541 160.826 8.56023 162.792 5.84202 166.001C3.54992 168.707 -0.0985865 171.602 0.463738 175.525C1.02579 179.443 5.33461 181.038 8.78715 181.786C13.1296 182.727 17.5997 182.349 21.9537 182.878C23.8105 183.103 25.8736 182.983 27.7428 182.791C29.9503 182.564 31.8424 181.141 33.7404 180.112C37.1542 178.261 40.0727 175.785 43.4354 173.877C47.6456 171.487 51.8115 168.955 56.4272 167.354C58.5745 166.61 60.785 165.76 62.5172 164.229C62.7751 164.001 62.967 163.657 63.2583 163.469C63.7533 163.15 63.886 163.473 64.1735 163.377C64.3945 163.302 64.6088 163.066 64.7999 162.996C65.2842 162.817 65.5003 162.89 66.0427 162.89C65.5773 162.626 65.1512 161.942 65.6344 161.386C66.4613 160.432 66.604 161.956 66.9146 162.309C67.1781 161.975 67.0772 161.677 67.0099 161.297C67.2322 161.442 67.4551 161.587 67.6777 161.733C67.5243 160.997 67.6702 160.32 68.0646 159.68C68.4282 159.089 68.5181 159.172 68.6183 158.354C69.748 159.373 69.9688 156.901 70.0705 156C70.1688 155.126 70.0716 154.498 70.6536 153.734C71.2783 152.914 72.2283 152.395 73.0213 151.758C74.2741 150.75 75.6526 149.478 77.385 150.444C78.7525 151.207 79.4968 153.077 80.78 154.037C81.5582 154.62 82.3797 154.679 82.8758 155.583C83.2769 156.313 83.4072 157.188 83.7859 157.938C84.7033 159.756 86.0239 161.836 87.5306 163.231C88.933 164.529 90.7333 164.522 92.3745 165.327C93.999 166.125 95.6871 166.988 97.4069 167.566C99.285 168.197 101.31 168.465 103.139 169.23C104.079 169.623 104.921 170.215 105.869 170.592C106.893 170.998 107.971 171.284 109.008 171.656C113.117 173.13 117.137 174.937 121.454 175.754C123.368 176.116 125.141 177.1 127.069 177.308C127.896 177.396 128.571 177.509 129.38 177.713C130.65 178.034 130.381 178.204 130.849 179.25C131.619 180.971 133.498 179.952 134.947 179.995C137.266 180.064 139.55 179.694 141.865 179.676C145.914 179.646 149.813 179.195 153.729 177.882C157.662 176.564 162.139 173.388 158.871 168.999Z" fill="#333333"/>
</svg>
